<svg version="1" xmlns="http://www.w3.org/2000/svg" width="400" height="400" viewBox="0 0 300.000000 300.000000"><path d="M0 150v150h300V0H0v150zM175 27.4c49.5 10.7 86.9 48.2 97.6 97.8 2.3 10.4 2.6 36.9.5 47.3-8.6 43.8-38.7 79.5-80.1 94.8-15.2 5.6-24.2 7.1-42.5 7.2-9.6 0-18.8-.5-23-1.4-51.3-10-90.6-49.3-100.6-100.6-1.8-9.2-1.8-35.8 0-45 4.8-24.6 15.7-45.7 33-63.8 19.6-20.5 44.1-33.2 72.6-37.6 8.7-1.4 33.6-.6 42.5 1.3z"/><path d="M131.5 38.1c-2.7.4-9 2-14 3.4-40.1 11.6-71.8 47-79 88.4-1.9 10.7-1.9 29.5 0 40.2 7.6 43.5 40.3 78.5 84.2 90 9.7 2.5 33.6 3.6 43.9 2 16-2.5 34.8-9.7 47.1-18.3 22.8-15.6 39.2-39.2 46.4-66.5 2.6-10.1 3.6-32.8 1.9-44.4-3.3-23.2-14.9-45.8-32-62.9-16.9-16.9-38.8-28.2-62.3-32-7.3-1.2-29.1-1.1-36.2.1zM88.6 78.4c1.9 1.9 3.4 4.2 3.4 5.1 0 2.2-6.3 8.5-8.5 8.5S75 85.7 75 83.5s6.3-8.5 8.5-8.5c.9 0 3.2 1.5 5.1 3.4zm133 0c1.9 1.9 3.4 4.2 3.4 5.1 0 .9-1.5 3.2-3.4 5.1-1.9 1.9-4.2 3.4-5.1 3.4-2.2 0-8.5-6.3-8.5-8.5 0-.9 1.5-3.2 3.4-5.1 1.9-1.9 4.2-3.4 5.1-3.4.9 0 3.2 1.5 5.1 3.4zm-117 16c4.2 4.2 4.3 6.6.3 10.5-3.9 4-6.3 3.9-10.6-.4-2.7-2.7-3.3-3.9-2.8-5.7 1.2-3.9 5.3-7.5 8.9-7.7.4-.1 2.3 1.4 4.2 3.3zm101 0c3.9 3.8 3.9 6.3.1 10.1-4.3 4.3-6.7 4.4-10.6.4-4-3.9-3.9-6.3.4-10.6 3.8-3.8 6.3-3.8 10.1.1zm-84.2 16.7c1.4 1.7 2.6 3.9 2.6 4.9 0 3.2-4.8 8-8 8s-8-4.8-8-8 4.8-8 8-8c1.9 0 3.6 1 5.4 3.1zm67.8-.4c3.6 3.4 3.6 6.7-.1 10.4-3.6 3.6-6 3.7-10 .3-3.9-3.3-4-6.8-.4-10.6 3.4-3.5 6.9-3.6 10.5-.1zm-48.4 16.5c.5 1.8 2.4 9 4.3 16 1.8 7.1 3.6 12.8 3.9 12.8.4 0 1.9-5.1 3.5-11.3 1.5-6.1 3.4-13.3 4.2-16l1.4-4.7H174v52h-10l-.1-19.3-.1-19.2-4.7 19-4.6 19-5.5.3-5.5.3-4.5-19.3-4.5-19.3-.3 19.2-.2 19.3h-10v-52h15.9l.9 3.2zm-19.6 51.5c1.7 1.6 2.8 3.7 2.8 5.3 0 3.3-4.7 8-8 8-3.2 0-8-4.7-8-7.9 0-3.3 4.7-8.1 7.9-8.1 1.4 0 3.8 1.2 5.3 2.7zm68 0c1.7 1.6 2.8 3.7 2.8 5.3 0 3.2-4.7 8-7.9 8-2.8 0-8.1-5.1-8.1-7.8 0-1.1 1.2-3.4 2.6-5.1 3.3-3.9 6.8-4 10.6-.4zm-84.1 16.2c3.9 4 3.8 7.1-.6 11-2 1.7-3.8 3.1-4.1 3.1-1.9 0-6.6-3.5-7.8-5.8-1.7-3.3-.8-6.1 3-9.1 3.6-2.8 6-2.7 9.5.8zm100.8.6c3.6 4.2 3.5 3.8 1.6 7.5-3 5.8-8.9 6.7-12.9 1.9-3.3-3.9-3.3-6 .3-9.8 3.9-4.2 7.1-4 11 .4zM88.6 211.4c1.9 1.9 3.4 4.3 3.4 5.4 0 2.3-6.3 8.2-8.6 8.2-2.1 0-8.4-6.4-8.4-8.5 0-2.2 6.3-8.5 8.5-8.5.9 0 3.2 1.5 5.1 3.4zm133 0c1.9 1.9 3.4 4.2 3.4 5.1 0 2.2-6.3 8.5-8.5 8.5s-8.5-6.3-8.5-8.5 6.3-8.5 8.5-8.5c.9 0 3.2 1.5 5.1 3.4z"/></svg>